# xmcd CD database file
#
# Track frame offsets:
#	150
#	27958
#	45308
#	63698
#	93993
#	117355
#	140930
#	170205
#	192475
#	218308
#	235030
#	259123
#	280963
#	299380
#	320525
#
# Disc length: 4583 seconds
#
# Revision: 0
# Processed by: cddbd v1.5.1PL0 Copyright (c) Steve Scherf et al.
# Submitted via: CDex 1.50
#
DISCID=e711e50f
DTITLE=Various Artist - Slow Music Style - Night
DYEAR=2002
DGENRE=
TTITLE0=Family Affair/jazoulster(feat. Maysa Leak)
TTITLE1=Batucada Surgiu/Pamela Driggs
TTITLE2=(They Long To Be)Close To You/paris match
TTITLE3=The Summer Knows/Seikou Nagaoka
TTITLE4=Michelle/Philippe Saisse Acoustique Trio
TTITLE5=Felicidade?Cesar Camargo Mariano
TTITLE6=You Don't Know What Love Is/Osamu Koike
TTITLE7=Stayin' Alive/Philippe Saisse Acoustique Trio(feat. Kelli Sae)
TTITLE8=You've Got A Friend/East 4th HornS
TTITLE9=Where is The Love/Kuk Harrell (w/ Mika Lett)
TTITLE10=Waters of March/Brett Raymond
TTITLE11=Fantasy of Love/ZAKI Project(feat. Sean Franks)
TTITLE12=Altogether Alone/Hiroshi Shinkawa
TTITLE13=No Me Platiques Mas/Ken Morimura
TTITLE14=This Guy's in Love with You/nanan
EXTD=YEAR: 2002
EXTT0=
EXTT1=
EXTT2=
EXTT3=
EXTT4=
EXTT5=
EXTT6=
EXTT7=
EXTT8=
EXTT9=
EXTT10=
EXTT11=
EXTT12=
EXTT13=
EXTT14=
PLAYORDER=
